<?xml version="1.0" encoding="UTF-8"?>
<!DOCTYPE svg PUBLIC "-//W3C//DTD SVG 1.1//EN" "http://www.w3.org/Graphics/SVG/1.1/DTD/svg11.dtd">
<!-- Creator: CorelDRAW -->
<svg xmlns="http://www.w3.org/2000/svg" xml:space="preserve" width="365.206mm" height="138.735mm" version="1.1" style="shape-rendering:geometricPrecision; text-rendering:geometricPrecision; image-rendering:optimizeQuality; fill-rule:evenodd; clip-rule:evenodd"
viewBox="0 0 4504.74 1711.26"
 xmlns:xlink="http://www.w3.org/1999/xlink"
 xmlns:xodm="http://www.corel.com/coreldraw/odm/2003">
 <defs>
  <style type="text/css">
   <![CDATA[
    .fil0 {fill:#E62129}
    .fil1 {fill:#332C2B;fill-rule:nonzero}
   ]]>
  </style>
 </defs>
 <g id="Layer_x0020_1">
  <metadata id="CorelCorpID_0Corel-Layer"/>
  <g id="_1847284929024">
   <path class="fil0" d="M-0 1698.15l767.73 0 0 -587.04 0 -217.66 -390.17 0 0 217.66 172.5 0 0 344.25 -332.41 0 0 -901.27 332.41 -176.45 0 407.67 217.66 0 0 -785.32 -767.73 395.93 0 1302.22zm1194.16 -587.04l0 -217.66 390.17 0 0 217.66 0 587.04 -767.73 0c0,-732.61 0,-965.55 0,-1698.15l767.73 395.93 0 390.05 -217.66 0 0 -231.88 -332.41 -176.45c0,511.18 0,566.53 0,1077.72l332.41 0 0 -344.25 -172.51 0z"/>
   <path class="fil1" d="M2097.38 943.27l-6.27 -34.79c-14.68,15.53 -32.27,27.03 -52.94,34.61 -20.67,7.58 -44.61,11.41 -72.02,11.41 -57.8,0 -103.26,-18.99 -136.56,-56.87 -33.2,-37.88 -49.85,-89.88 -49.85,-155.82 0,-67.44 18.52,-119.72 55.65,-156.95 37.04,-37.13 89.04,-55.74 155.92,-55.74 52.56,0 95.03,13.09 127.2,39.28 32.27,26.1 51.44,62.95 57.43,110.55l-122.9 0c-4.96,-16.09 -12.91,-28.34 -23.94,-36.76 -11.13,-8.42 -24.79,-12.63 -41.06,-12.63 -25.91,0 -45.36,9.91 -58.18,29.84 -12.91,19.92 -19.36,49.57 -19.36,89.04 0,36.48 6.45,63.79 19.45,81.84 13,18.05 32.74,27.12 59.21,27.12 18.99,0 35.17,-4.4 48.36,-13.19 13.28,-8.89 21.42,-20.76 24.6,-35.64l-58.46 0 0 -86.42 177.34 0 0 221.11 -83.62 0z"/>
   <path id="_1" class="fil1" d="M2274.22 539.77l129.63 0 0 248.7c0,23.1 4.77,39.47 14.4,49.2 9.54,9.82 25.53,14.68 47.98,14.68 21.89,0 37.6,-4.77 46.95,-14.4 9.45,-9.54 14.12,-26.1 14.12,-49.48l0 -248.7 129.64 0 0 258.9c0,50.6 -16.27,89.14 -48.92,115.79 -32.55,26.66 -79.88,40.03 -141.79,40.03 -62.29,0 -109.81,-13.37 -142.73,-40.13 -32.83,-26.75 -49.29,-65.28 -49.29,-115.7l0 -258.9z"/>
   <path id="_2" class="fil1" d="M2883.17 841.13l34.79 0c32.27,0 54.62,-7.2 67.16,-21.61 12.44,-14.5 18.71,-40.31 18.71,-77.63 0,-36.29 -6.36,-62.11 -19.17,-77.26 -12.72,-15.15 -34.42,-22.73 -65.1,-22.73l-36.38 0 0 199.22zm-129.63 102.14l0 -403.5 156.76 0c39.75,0 69.4,1.78 88.85,5.33 19.45,3.55 36.38,9.45 50.79,17.68 27.97,16.46 48.92,39.56 63.04,69.31 14.03,29.74 21.05,66.41 21.05,109.81 0,45.74 -8.7,84.09 -26.19,115.23 -17.4,31.15 -43.12,54.25 -77.07,69.4 -13.09,6.08 -29.65,10.38 -49.38,12.91 -19.83,2.52 -51.54,3.83 -95.22,3.83l-132.63 0z"/>
   <path id="_3" class="fil1" d="M3336.87 805.22l81.37 0 -40.22 -139.74 -41.15 139.74zm-166.67 138.05l141.98 -403.5 131.32 0 141.98 403.5 -128.51 0 -15.15 -53.31 -128.51 0 -15.62 53.31 -127.48 0z"/>
   <path id="_4" class="fil1" d="M3643.25 943.27l0 -403.5 122.9 0 113.27 187.63c3.46,5.33 7.2,12.81 11.13,22.45 3.93,9.73 8.04,21.42 12.44,35.08 -1.12,-7.11 -1.87,-14.97 -2.43,-23.57 -0.56,-8.51 -0.84,-18.99 -0.84,-31.24l0 -190.34 123.46 0 0 403.5 -123.46 0 -113.27 -186.32c-3.46,-5.42 -7.3,-13.19 -11.41,-23.2 -4.12,-10.1 -8.23,-21.61 -12.44,-34.61 1.31,7.2 2.15,14.59 2.71,22.35 0.56,7.76 0.84,18.71 0.84,32.74l0 189.03 -122.9 0z"/>
   <path id="_5" class="fil1" d="M4421.13 943.27l-6.27 -34.79c-14.68,15.53 -32.27,27.03 -52.94,34.61 -20.67,7.58 -44.61,11.41 -72.02,11.41 -57.8,0 -103.26,-18.99 -136.56,-56.87 -33.2,-37.88 -49.85,-89.88 -49.85,-155.82 0,-67.44 18.52,-119.72 55.65,-156.95 37.04,-37.13 89.04,-55.74 155.92,-55.74 52.56,0 95.03,13.09 127.2,39.28 32.27,26.1 51.44,62.95 57.43,110.55l-122.9 0c-4.96,-16.09 -12.91,-28.34 -23.94,-36.76 -11.13,-8.42 -24.79,-12.63 -41.06,-12.63 -25.91,0 -45.36,9.91 -58.18,29.84 -12.91,19.92 -19.36,49.57 -19.36,89.04 0,36.48 6.45,63.79 19.45,81.84 13,18.05 32.74,27.12 59.21,27.12 18.99,0 35.17,-4.4 48.36,-13.19 13.28,-8.89 21.42,-20.76 24.6,-35.64l-58.46 0 0 -86.42 177.34 0 0 221.11 -83.62 0z"/>
   <path class="fil1" d="M2049.51 1382.78l-5.33 -29.58c-12.48,13.2 -27.43,22.98 -45,29.42 -17.57,6.44 -37.93,9.7 -61.22,9.7 -49.14,0 -87.78,-16.14 -116.09,-48.34 -28.23,-32.2 -42.38,-76.41 -42.38,-132.47 0,-57.33 15.74,-101.77 47.31,-133.42 31.49,-31.57 75.69,-47.39 132.54,-47.39 44.69,0 80.78,11.13 108.14,33.39 27.43,22.18 43.73,53.51 48.82,93.98l-104.48 0c-4.21,-13.68 -10.97,-24.09 -20.35,-31.25 -9.46,-7.16 -21.07,-10.73 -34.9,-10.73 -22.03,0 -38.56,8.43 -49.46,25.36 -10.97,16.94 -16.46,42.14 -16.46,75.69 0,31.01 5.49,54.23 16.54,69.57 11.05,15.35 27.83,23.06 50.33,23.06 16.14,0 29.9,-3.74 41.11,-11.21 11.29,-7.55 18.21,-17.65 20.91,-30.29l-49.69 0 0 -73.47 150.75 0 0 187.96 -71.08 0z"/>
   <path id="_1_0" class="fil1" d="M2288.75 1187.18l50.01 0c17.57,0 29.66,-2.39 36.34,-7.16 6.68,-4.69 10.02,-12.96 10.02,-24.81 0,-12.17 -3.34,-20.59 -10.02,-25.29 -6.68,-4.77 -19.72,-7.16 -39.12,-7.16l-47.23 0 0 64.4zm-108.77 195.6l0 -343.01 164.11 0c51.44,0 88.18,7.71 110.12,23.06 22.03,15.35 33,40.55 33,75.69 0,20.91 -4.53,38.32 -13.52,52.16 -8.98,13.83 -22.9,24.73 -41.74,32.84 19.16,3.98 33.08,12.01 41.74,23.85 8.75,11.85 13.36,29.26 13.99,52.24l1.91 47.79c0,0.32 0.08,0.72 0.16,1.11 0.48,13.68 3.82,20.83 9.86,21.47l0 12.8 -111.24 0c-2.07,-8.27 -3.58,-15.42 -4.61,-21.55 -1.03,-6.12 -1.51,-10.89 -1.51,-14.31l0 -34.27c0,-17.65 -3.5,-30.13 -10.5,-37.37 -6.92,-7.24 -19,-10.81 -36.26,-10.81l-46.75 0 0 118.31 -108.77 0z"/>
   <path id="_2_1" class="fil1" d="M2637.31 1211.59c0,32.52 5.41,56.29 16.3,71.56 10.89,15.19 27.91,22.82 51.05,22.82 23.06,0 39.92,-7.55 50.65,-22.74 10.73,-15.11 16.06,-38.96 16.06,-71.64 0,-32.76 -5.33,-56.69 -16.06,-71.8 -10.73,-15.19 -27.59,-22.74 -50.65,-22.74 -23.14,0 -40.15,7.63 -51.05,22.82 -10.89,15.27 -16.3,39.12 -16.3,71.72zm-111.16 -0.08c0,-55.9 15.98,-100.03 47.87,-132.31 31.88,-32.36 75.46,-48.5 130.56,-48.5 54.94,0 98.36,16.14 130.16,48.5 31.88,32.28 47.79,76.41 47.79,132.31 0,55.74 -15.9,99.87 -47.79,132.23 -31.8,32.36 -75.22,48.58 -130.16,48.58 -55.1,0 -98.67,-16.22 -130.56,-48.58 -31.88,-32.36 -47.87,-76.49 -47.87,-132.23z"/>
   <path id="_3_2" class="fil1" d="M2913.69 1275.91l107.34 0c2.94,12.4 8.27,21.31 16.06,26.72 7.71,5.41 19.32,8.11 34.67,8.11 12.8,0 22.98,-2.23 30.29,-6.6 7.39,-4.45 11.05,-10.5 11.05,-18.29 0,-12.4 -15.42,-22.42 -46.28,-30.21 -6.2,-1.51 -10.97,-2.7 -14.23,-3.5 -25.28,-6.52 -45.4,-12.48 -60.43,-17.81 -14.95,-5.33 -25.84,-10.42 -32.68,-15.03 -13.2,-9.46 -23.14,-20.83 -29.74,-34.03 -6.6,-13.2 -9.86,-28.31 -9.86,-45.24 0,-34.03 12.8,-60.75 38.4,-80.23 25.6,-19.4 60.83,-29.1 105.67,-29.1 44.13,0 78.8,9.3 104.08,27.91 25.28,18.6 39.6,45.24 42.86,79.91l-104.48 0c-1.67,-10.1 -6.2,-17.65 -13.36,-22.58 -7.24,-5.01 -17.57,-7.47 -30.93,-7.47 -11.77,0 -20.51,1.91 -26.32,5.8 -5.72,3.9 -8.59,9.78 -8.59,17.73 0,11.29 15.03,20.83 45.16,28.39 2.7,0.79 4.69,1.35 6.04,1.67 4.37,1.03 10.97,2.7 19.88,4.85 39.92,10.1 65.99,19.24 78.32,27.51 15.19,10.1 26.32,21.55 33.32,34.43 7,12.88 10.5,28.15 10.5,45.64 0,37.93 -13.28,67.03 -39.76,87.3 -26.48,20.35 -64.4,30.53 -113.86,30.53 -45.56,0 -81.66,-10.18 -108.29,-30.53 -26.64,-20.27 -41.58,-48.9 -44.84,-85.87z"/>
   <polygon id="_4_3" class="fil1" points="3268.77,1382.78 3268.77,1039.76 3380.88,1039.76 3380.88,1382.78 "/>
   <path id="_5_4" class="fil1" d="M3553.73 1187.18l50.01 0c17.57,0 29.66,-2.39 36.34,-7.16 6.68,-4.69 10.02,-12.96 10.02,-24.81 0,-12.17 -3.34,-20.59 -10.02,-25.29 -6.68,-4.77 -19.72,-7.16 -39.12,-7.16l-47.23 0 0 64.4zm-108.77 195.6l0 -343.01 164.11 0c51.44,0 88.18,7.71 110.12,23.06 22.03,15.35 33,40.55 33,75.69 0,20.91 -4.53,38.32 -13.52,52.16 -8.98,13.83 -22.9,24.73 -41.74,32.84 19.16,3.98 33.08,12.01 41.74,23.85 8.75,11.85 13.36,29.26 13.99,52.24l1.91 47.79c0,0.32 0.08,0.72 0.16,1.11 0.48,13.68 3.82,20.83 9.86,21.47l0 12.8 -111.24 0c-2.07,-8.27 -3.58,-15.42 -4.61,-21.55 -1.03,-6.12 -1.51,-10.89 -1.51,-14.31l0 -34.27c0,-17.65 -3.5,-30.13 -10.5,-37.37 -6.92,-7.24 -19,-10.81 -36.26,-10.81l-46.75 0 0 118.31 -108.77 0z"/>
   <path id="_6" class="fil1" d="M3913.75 1265.42l69.17 0 -34.19 -118.79 -34.99 118.79zm-141.69 117.36l120.7 -343.01 111.63 0 120.7 343.01 -109.25 0 -12.88 -45.32 -109.25 0 -13.28 45.32 -108.37 0z"/>
   <path id="_7" class="fil1" d="M4153.39 1382.78l0 -343.01 104.48 0 96.29 159.5c2.94,4.53 6.12,10.89 9.46,19.08 3.34,8.27 6.84,18.21 10.57,29.82 -0.95,-6.04 -1.59,-12.72 -2.07,-20.04 -0.48,-7.24 -0.72,-16.14 -0.72,-26.56l0 -161.81 104.96 0 0 343.01 -104.96 0 -96.29 -158.39c-2.94,-4.61 -6.2,-11.21 -9.7,-19.72 -3.5,-8.59 -7,-18.37 -10.58,-29.42 1.11,6.12 1.83,12.4 2.31,19 0.48,6.6 0.72,15.9 0.72,27.83l0 160.69 -104.48 0z"/>
   <path class="fil1" d="M1930.53 1541.98c3.41,0 6.2,0.46 8.37,1.38 2.16,0.92 3.87,2.1 5.12,3.54 1.25,1.44 2.1,3.12 2.56,5.02 0.46,1.9 0.69,3.84 0.69,5.81l0 14.76 -3.94 0c0,-7.87 -2.13,-13.62 -6.4,-17.22 -4.27,-3.61 -10.33,-5.41 -18.21,-5.41l-36.61 0 0 51.18 53.15 0 0 7.87 -53.15 0 0 55.12 34.45 0c8.92,0 15.98,-1.64 21.16,-4.92 5.18,-3.28 9.28,-8.86 12.3,-16.73l3.94 0.98 -6.89 18.7c-1.05,3.02 -2.79,5.41 -5.22,7.19 -2.43,1.77 -5.61,2.66 -9.55,2.66l-67.91 0 0 -106.29c0,-5.91 -0.82,-10.66 -2.46,-14.27 -1.64,-3.61 -5.41,-5.41 -11.32,-5.41l-3.94 0 0 -3.94 83.85 0z"/>
   <path id="_1_5" class="fil1" d="M2026.04 1577.41c6.95,0 12.83,0.52 17.62,1.57 4.79,1.05 8.43,2.82 10.92,5.32 1.18,1.18 2.13,2.49 2.85,3.94 0.72,1.44 1.21,3.15 1.48,5.12 0.26,1.97 0.43,4.3 0.49,6.99 0.07,2.69 0.1,5.87 0.1,9.55l-3.94 0c-0.53,-8.4 -3.18,-14.6 -7.97,-18.6 -4.79,-4 -10.66,-6 -17.62,-6 -4.99,0 -9.25,1.05 -12.79,3.15 -3.54,2.1 -6.5,4.95 -8.86,8.56 -2.36,3.61 -4.1,7.87 -5.22,12.79 -1.12,4.92 -1.67,10.2 -1.67,15.85 0,5.64 0.56,10.92 1.67,15.85 1.12,4.92 2.85,9.19 5.22,12.79 2.36,3.61 5.31,6.46 8.86,8.56 3.54,2.1 7.81,3.15 12.79,3.15 6.96,0 12.6,-1.38 16.93,-4.13 4.33,-2.76 8.2,-6.63 11.61,-11.61l3.94 2.95c-4.46,7.48 -9.68,12.79 -15.65,15.94 -5.97,3.15 -12.89,4.72 -20.77,4.72 -7.35,0 -13.75,-1.28 -19.19,-3.84 -5.45,-2.56 -9.94,-6 -13.48,-10.33 -3.54,-4.33 -6.2,-9.42 -7.97,-15.25 -1.77,-5.84 -2.66,-12.11 -2.66,-18.8 0,-6.69 0.89,-12.96 2.66,-18.8 1.77,-5.84 4.43,-10.92 7.97,-15.26 3.54,-4.33 8.04,-7.77 13.48,-10.33 5.45,-2.56 11.84,-3.84 19.19,-3.84z"/>
   <path id="_2_6" class="fil1" d="M2170.36 1628.59l-59.64 0c0,5.38 0.59,10.37 1.77,14.96 1.18,4.59 2.92,8.56 5.22,11.91 2.3,3.35 5.09,5.94 8.37,7.77 3.28,1.84 7.02,2.76 11.22,2.76 6.43,0 11.78,-1.38 16.04,-4.13 4.27,-2.76 8.1,-6.63 11.52,-11.61l3.94 2.95c-4.46,7.48 -9.61,12.79 -15.45,15.94 -5.84,3.15 -12.5,4.72 -19.98,4.72 -6.96,0 -12.99,-1.28 -18.11,-3.84 -5.12,-2.56 -9.42,-6 -12.89,-10.33 -3.48,-4.33 -6.07,-9.42 -7.77,-15.25 -1.71,-5.84 -2.56,-12.11 -2.56,-18.8 0,-6.69 0.89,-12.96 2.66,-18.8 1.77,-5.84 4.36,-10.92 7.78,-15.26 3.41,-4.33 7.55,-7.77 12.4,-10.33 4.86,-2.56 10.37,-3.84 16.53,-3.84 13.39,0 23.29,3.74 29.72,11.22 6.43,7.48 9.64,18.17 9.64,32.08l-0.39 7.87zm-18.31 -7.87c0,-11.42 -1.71,-20.18 -5.12,-26.28 -3.41,-6.1 -8.59,-9.15 -15.55,-9.15 -3.02,0 -5.77,0.89 -8.27,2.66 -2.49,1.77 -4.66,4.23 -6.5,7.38 -1.84,3.15 -3.28,6.89 -4.33,11.22 -1.05,4.33 -1.58,9.05 -1.58,14.17l41.34 0z"/>
   <path id="_3_7" class="fil1" d="M2209.18 1603c0,-5.9 -0.82,-10.66 -2.46,-14.27 -1.64,-3.61 -5.41,-5.41 -11.32,-5.41l-1.97 0 0 -3.94 15.75 0c4.99,0 8.76,0.72 11.32,2.17 2.56,1.44 4.36,3.67 5.41,6.69l0.98 0c1.97,-2.49 4.92,-4.92 8.86,-7.28 3.94,-2.36 8.86,-3.54 14.76,-3.54 1.97,0 4.07,0.23 6.3,0.69 2.23,0.46 4.07,1.21 5.51,2.26 1.44,1.05 2.69,2.3 3.74,3.74 1.05,1.44 2.1,3.15 3.15,5.12l-7.87 5.91c-1.44,-1.97 -3.58,-3.45 -6.4,-4.43 -2.82,-0.98 -5.94,-1.48 -9.35,-1.48 -3.94,0 -7.55,0.89 -10.83,2.66 -3.28,1.77 -5.91,4.17 -7.87,7.18l0 72.83 -17.72 0 0 -68.89z"/>
   <path id="_4_8" class="fil1" d="M2349.57 1626.62l-5.9 0c-9.84,0 -17.55,1.8 -23.13,5.41 -5.58,3.61 -8.37,8.37 -8.37,14.27 0,3.15 0.52,5.9 1.57,8.27 1.05,2.36 2.43,4.33 4.13,5.9 1.71,1.58 3.67,2.72 5.9,3.45 2.23,0.72 4.59,1.08 7.09,1.08 4.85,0 8.69,-1.21 11.51,-3.64 2.82,-2.43 5.22,-5.15 7.19,-8.17l0 -26.57zm7.87 45.27l-6.89 -8.86 -0.98 0c-1.97,2.49 -5.18,4.92 -9.64,7.28 -4.46,2.36 -10.43,3.54 -17.91,3.54 -2.76,0 -5.77,-0.43 -9.05,-1.28 -3.28,-0.85 -6.36,-2.33 -9.25,-4.43 -2.89,-2.1 -5.32,-4.92 -7.28,-8.46 -1.97,-3.54 -2.95,-8.01 -2.95,-13.38 0,-5.38 1.38,-9.84 4.13,-13.39 2.76,-3.54 6.43,-6.36 11.02,-8.46 4.59,-2.1 9.91,-3.58 15.94,-4.43 6.04,-0.85 12.4,-1.28 19.09,-1.28l5.9 0c0,-6.82 -0.53,-12.43 -1.58,-16.83 -1.05,-4.4 -2.49,-7.81 -4.33,-10.24 -1.84,-2.43 -4.04,-4.1 -6.59,-5.02 -2.56,-0.92 -5.28,-1.38 -8.17,-1.38 -5.51,0 -10.14,1.18 -13.88,3.54 -3.74,2.36 -6.33,6.76 -7.78,13.19l-8.86 0c0,-3.41 0.2,-6.59 0.59,-9.55 0.39,-2.95 1.84,-5.68 4.33,-8.17 1.18,-1.18 2.85,-2.23 5.02,-3.15 2.16,-0.92 4.56,-1.64 7.19,-2.17 2.62,-0.52 5.41,-0.92 8.37,-1.18 2.95,-0.26 5.94,-0.39 8.96,-0.39 4.46,0 8.76,0.49 12.89,1.48 4.13,0.98 7.81,2.95 11.02,5.91 3.21,2.95 5.77,7.15 7.68,12.6 1.9,5.45 2.85,12.56 2.85,21.36l0 53.15 -9.84 0z"/>
   <path id="_5_9" class="fil1" d="M2411.81 1603c0,-5.9 -0.82,-10.66 -2.46,-14.27 -1.64,-3.61 -5.41,-5.41 -11.32,-5.41l-3.94 0 0 -3.94 17.72 0c4.99,0 8.76,0.69 11.32,2.07 2.56,1.38 4.36,3.31 5.41,5.81l0.98 0c2.49,-2.49 5.9,-4.76 10.24,-6.79 4.33,-2.03 9.45,-3.05 15.35,-3.05 4.2,0 8.3,0.49 12.3,1.48 4,0.98 7.58,2.82 10.73,5.51 3.15,2.69 5.68,6.33 7.58,10.92 1.9,4.59 2.85,10.43 2.85,17.52l0 59.05 -17.72 0 0 -59.05c0,-4.85 -0.62,-8.99 -1.87,-12.4 -1.25,-3.41 -2.89,-6.17 -4.92,-8.27 -2.03,-2.1 -4.33,-3.61 -6.89,-4.53 -2.56,-0.92 -5.22,-1.38 -7.97,-1.38 -3.94,0 -7.58,1.05 -10.92,3.15 -3.35,2.1 -6.27,4.53 -8.76,7.28l0 75.19 -17.72 0 0 -68.89z"/>
   <path id="_6_10" class="fil1" d="M2573.46 1644.34c0,-4.07 0.79,-7.78 2.36,-11.12 1.58,-3.35 3.67,-6.5 6.3,-9.45 2.62,-2.95 5.64,-5.71 9.05,-8.27 3.41,-2.56 6.89,-5.15 10.43,-7.77 -3.81,-3.28 -7.22,-6.96 -10.24,-11.02 -2.62,-3.41 -4.95,-7.51 -6.99,-12.3 -2.03,-4.79 -3.05,-10.01 -3.05,-15.65 0,-9.45 3.18,-16.93 9.55,-22.44 6.36,-5.51 14.99,-8.27 25.88,-8.27 10.37,0 18.37,2.62 24.01,7.87 5.64,5.25 8.46,11.81 8.46,19.68 0,4.59 -0.79,8.73 -2.36,12.4 -1.58,3.67 -3.67,7.05 -6.3,10.14 -2.62,3.08 -5.68,6 -9.15,8.76 -3.48,2.76 -7.12,5.45 -10.92,8.07l39.57 43.3c2.76,-3.02 5.22,-5.97 7.38,-8.86 2.16,-2.89 4.03,-5.51 5.61,-7.87 1.71,-2.76 3.28,-5.38 4.72,-7.87l3.94 2.95c-1.18,2.62 -2.62,5.38 -4.33,8.27 -1.44,2.49 -3.28,5.32 -5.51,8.46 -2.23,3.15 -4.79,6.3 -7.68,9.45l17.52 19.09 -21.65 0 -7.87 -8.46c-4.72,3.54 -10.17,6.5 -16.34,8.86 -6.17,2.36 -13.19,3.54 -21.06,3.54 -6.95,0 -12.99,-0.82 -18.11,-2.46 -5.12,-1.64 -9.42,-3.87 -12.89,-6.69 -3.48,-2.82 -6.07,-6.13 -7.77,-9.94 -1.71,-3.81 -2.56,-7.94 -2.56,-12.4zm45.08 24.6c6.04,0 11.48,-0.92 16.34,-2.76 4.86,-1.84 9.25,-4.26 13.19,-7.28l-40.55 -44.29c-4.46,3.81 -8.14,7.91 -11.02,12.3 -2.89,4.4 -4.33,9.55 -4.33,15.45 0,17.72 8.79,26.57 26.38,26.57zm-18.5 -100.19c0,3.94 0.69,7.61 2.07,11.02 1.38,3.41 2.92,6.43 4.63,9.05 1.71,2.62 3.31,4.76 4.82,6.4 1.51,1.64 2.46,2.59 2.85,2.85 4.99,-4.2 9.25,-8.69 12.79,-13.48 3.54,-4.79 5.31,-10.46 5.31,-17.03 0,-4.2 -0.49,-7.74 -1.48,-10.63 -0.98,-2.89 -2.26,-5.22 -3.84,-6.99 -1.58,-1.77 -3.28,-3.05 -5.12,-3.84 -1.84,-0.79 -3.61,-1.18 -5.32,-1.18 -1.97,0 -3.94,0.39 -5.9,1.18 -1.97,0.79 -3.77,2.13 -5.41,4.04 -1.64,1.9 -2.95,4.36 -3.94,7.38 -0.98,3.02 -1.48,6.76 -1.48,11.22z"/>
   <path id="_7_11" class="fil1" d="M2825.46 1545.92c-8.4,0 -15.58,1.71 -21.55,5.12 -5.97,3.41 -10.86,7.87 -14.66,13.38 -3.81,5.51 -6.59,11.81 -8.37,18.9 -1.77,7.09 -2.66,14.3 -2.66,21.65 0,11.81 1.25,21.75 3.74,29.82 2.49,8.07 5.9,14.57 10.24,19.49 4.33,4.92 9.35,8.43 15.06,10.53 5.71,2.1 11.78,3.15 18.21,3.15 7.09,0 12.99,-0.62 17.72,-1.87 4.72,-1.25 8.99,-2.92 12.79,-5.02l0 -34.25c0,-2.76 0.29,-5.48 0.89,-8.17 0.59,-2.69 2,-5.15 4.23,-7.38 2.23,-2.23 5.51,-4.03 9.84,-5.41 4.33,-1.38 10.17,-2.07 17.52,-2.07l0 3.94c-3.15,0 -5.71,0.43 -7.68,1.28 -1.97,0.85 -3.48,2.1 -4.53,3.74 -1.05,1.64 -1.74,3.61 -2.07,5.91 -0.33,2.3 -0.49,4.89 -0.49,7.77l0 37.01c-7.09,4.33 -14.5,7.48 -22.24,9.45 -7.74,1.97 -16.4,2.95 -25.98,2.95 -9.84,0 -18.86,-1.84 -27.07,-5.51 -8.2,-3.67 -15.25,-8.73 -21.16,-15.16 -5.91,-6.43 -10.5,-13.94 -13.78,-22.54 -3.28,-8.6 -4.92,-17.81 -4.92,-27.66 0,-9.32 1.41,-18.04 4.23,-26.18 2.82,-8.14 6.89,-15.22 12.2,-21.26 5.32,-6.04 11.75,-10.79 19.29,-14.27 7.55,-3.48 15.98,-5.22 25.29,-5.22 11.94,0 21.92,1.54 29.92,4.63 8.01,3.08 13.78,6.79 17.32,11.12 1.18,1.44 2.13,3.25 2.85,5.41 0.72,2.17 1.21,4.43 1.48,6.79 0.26,2.36 0.43,4.79 0.49,7.28 0.07,2.49 0.1,4.86 0.1,7.09l-3.94 0c-2.49,-11.42 -7.18,-20.01 -14.07,-25.79 -6.89,-5.77 -16.3,-8.66 -28.25,-8.66z"/>
   <path id="_8" class="fil1" d="M2921.56 1603c0,-5.9 -0.82,-10.66 -2.46,-14.27 -1.64,-3.61 -5.41,-5.41 -11.32,-5.41l-1.97 0 0 -3.94 15.75 0c4.99,0 8.76,0.72 11.32,2.17 2.56,1.44 4.36,3.67 5.41,6.69l0.98 0c1.97,-2.49 4.92,-4.92 8.86,-7.28 3.94,-2.36 8.86,-3.54 14.76,-3.54 1.97,0 4.07,0.23 6.3,0.69 2.23,0.46 4.07,1.21 5.51,2.26 1.44,1.05 2.69,2.3 3.74,3.74 1.05,1.44 2.1,3.15 3.15,5.12l-7.87 5.91c-1.44,-1.97 -3.58,-3.45 -6.4,-4.43 -2.82,-0.98 -5.94,-1.48 -9.35,-1.48 -3.94,0 -7.55,0.89 -10.83,2.66 -3.28,1.77 -5.91,4.17 -7.87,7.18l0 72.83 -17.72 0 0 -68.89z"/>
   <path id="_9" class="fil1" d="M3073.16 1625.64c0,-5.64 -0.59,-10.92 -1.77,-15.85 -1.18,-4.92 -2.85,-9.19 -5.02,-12.79 -2.17,-3.61 -4.76,-6.46 -7.78,-8.56 -3.02,-2.1 -6.36,-3.15 -10.04,-3.15 -3.67,0 -7.02,1.05 -10.04,3.15 -3.02,2.1 -5.61,4.95 -7.77,8.56 -2.17,3.61 -3.84,7.87 -5.02,12.79 -1.18,4.92 -1.77,10.2 -1.77,15.85 0,5.64 0.59,10.92 1.77,15.85 1.18,4.92 2.85,9.19 5.02,12.79 2.16,3.61 4.76,6.46 7.77,8.56 3.02,2.1 6.36,3.15 10.04,3.15 3.67,0 7.02,-1.05 10.04,-3.15 3.02,-2.1 5.61,-4.95 7.78,-8.56 2.16,-3.61 3.84,-7.87 5.02,-12.79 1.18,-4.92 1.77,-10.2 1.77,-15.85zm-67.91 0c0,-6.69 0.95,-12.96 2.85,-18.8 1.9,-5.84 4.72,-10.92 8.46,-15.26 3.74,-4.33 8.27,-7.77 13.58,-10.33 5.32,-2.56 11.45,-3.84 18.4,-3.84 6.82,0 12.93,1.28 18.31,3.84 5.38,2.56 9.94,6 13.68,10.33 3.74,4.33 6.56,9.42 8.46,15.26 1.9,5.84 2.85,12.11 2.85,18.8 0,6.69 -0.95,12.96 -2.85,18.8 -1.9,5.84 -4.72,10.92 -8.46,15.25 -3.74,4.33 -8.3,7.77 -13.68,10.33 -5.38,2.56 -11.48,3.84 -18.31,3.84 -6.96,0 -13.09,-1.28 -18.4,-3.84 -5.32,-2.56 -9.84,-6 -13.58,-10.33 -3.74,-4.33 -6.56,-9.42 -8.46,-15.25 -1.9,-5.84 -2.85,-12.11 -2.85,-18.8z"/>
   <path id="_10" class="fil1" d="M3194.46 1648.28c0,4.2 -0.89,7.87 -2.66,11.02 -1.77,3.15 -4.17,5.81 -7.19,7.97 -3.02,2.16 -6.66,3.81 -10.92,4.92 -4.27,1.12 -8.83,1.67 -13.68,1.67 -7.87,0 -14.3,-0.69 -19.29,-2.07 -4.99,-1.38 -8.73,-3.31 -11.22,-5.81 -2.49,-2.49 -3.94,-5.32 -4.33,-8.46 -0.39,-3.15 -0.59,-7.22 -0.59,-12.2l3.94 0c1.05,6.43 3.81,11.48 8.27,15.16 4.46,3.67 10.89,5.51 19.29,5.51 7.48,0 12.96,-1.31 16.44,-3.94 3.48,-2.62 5.22,-5.9 5.22,-9.84 0,-3.94 -1.48,-7.25 -4.43,-9.94 -2.95,-2.69 -7.38,-5.28 -13.29,-7.77l-11.81 -4.92c-7.48,-3.02 -13.29,-6.59 -17.42,-10.73 -4.13,-4.13 -6.2,-9.42 -6.2,-15.85 0,-4.2 0.82,-7.87 2.46,-11.02 1.64,-3.15 3.9,-5.81 6.79,-7.97 2.89,-2.17 6.3,-3.81 10.24,-4.92 3.94,-1.12 8.27,-1.67 12.99,-1.67 7.48,0 13.65,0.69 18.5,2.07 4.85,1.38 8.53,3.31 11.02,5.81 2.49,2.49 3.94,5.31 4.33,8.46 0.39,3.15 0.59,7.22 0.59,12.2l-3.94 0c-1.05,-6.43 -3.77,-11.48 -8.17,-15.16 -4.4,-3.67 -10.53,-5.51 -18.4,-5.51 -6.43,0 -11.32,1.31 -14.66,3.94 -3.35,2.62 -5.02,5.91 -5.02,9.84 0,3.41 1.38,6.53 4.13,9.35 2.76,2.82 6.63,5.28 11.61,7.38l11.81 4.92c8.4,3.41 14.76,7.15 19.09,11.22 4.33,4.07 6.5,9.51 6.5,16.34z"/>
   <path id="_11" class="fil1" d="M3251.78 1671.9l-17.72 0 0 -68.89c0,-5.9 -0.82,-10.66 -2.46,-14.27 -1.64,-3.61 -5.41,-5.41 -11.32,-5.41l-3.94 0 0 -3.94 17.72 0c3.41,0 6.27,0.3 8.56,0.89 2.3,0.59 4.13,1.77 5.51,3.54 1.38,1.77 2.33,4.2 2.85,7.28 0.53,3.08 0.79,7.05 0.79,11.91l0 68.89zm-1.18 -113.18c0,2.76 -0.82,4.92 -2.46,6.5 -1.64,1.57 -3.84,2.36 -6.59,2.36 -3.02,0 -5.61,-1.25 -7.78,-3.74 -2.16,-2.49 -3.25,-5.45 -3.25,-8.86 0,-2.76 0.82,-4.92 2.46,-6.5 1.64,-1.57 3.84,-2.36 6.59,-2.36 3.02,0 5.61,1.25 7.77,3.74 2.16,2.49 3.25,5.45 3.25,8.86z"/>
   <path id="_12" class="fil1" d="M3295.33 1603c0,-5.9 -0.82,-10.66 -2.46,-14.27 -1.64,-3.61 -5.41,-5.41 -11.32,-5.41l-1.97 0 0 -3.94 15.75 0c4.99,0 8.76,0.72 11.32,2.17 2.56,1.44 4.36,3.67 5.41,6.69l0.98 0c1.97,-2.49 4.92,-4.92 8.86,-7.28 3.94,-2.36 8.86,-3.54 14.76,-3.54 1.97,0 4.07,0.23 6.3,0.69 2.23,0.46 4.07,1.21 5.51,2.26 1.44,1.05 2.69,2.3 3.74,3.74 1.05,1.44 2.1,3.15 3.15,5.12l-7.87 5.91c-1.44,-1.97 -3.58,-3.45 -6.4,-4.43 -2.82,-0.98 -5.94,-1.48 -9.35,-1.48 -3.94,0 -7.55,0.89 -10.83,2.66 -3.28,1.77 -5.91,4.17 -7.87,7.18l0 72.83 -17.72 0 0 -68.89z"/>
   <path id="_13" class="fil1" d="M3533.54 1541.98l0 7.87 -44.29 0 0 122.04 -17.72 0 0 -122.04 -17.72 0c-7.87,0 -13.94,1.8 -18.21,5.41 -4.26,3.61 -6.4,9.35 -6.4,17.22l-3.94 0 0 -14.76c0,-1.97 0.23,-3.9 0.69,-5.81 0.46,-1.9 1.31,-3.58 2.56,-5.02 1.25,-1.44 2.95,-2.62 5.12,-3.54 2.17,-0.92 4.95,-1.38 8.37,-1.38l91.53 0z"/>
   <path id="_14" class="fil1" d="M3620.39 1628.59l-59.64 0c0,5.38 0.59,10.37 1.77,14.96 1.18,4.59 2.92,8.56 5.22,11.91 2.3,3.35 5.09,5.94 8.37,7.77 3.28,1.84 7.02,2.76 11.22,2.76 6.43,0 11.78,-1.38 16.04,-4.13 4.27,-2.76 8.1,-6.63 11.52,-11.61l3.94 2.95c-4.46,7.48 -9.61,12.79 -15.45,15.94 -5.84,3.15 -12.5,4.72 -19.98,4.72 -6.96,0 -12.99,-1.28 -18.11,-3.84 -5.12,-2.56 -9.42,-6 -12.89,-10.33 -3.48,-4.33 -6.07,-9.42 -7.77,-15.25 -1.71,-5.84 -2.56,-12.11 -2.56,-18.8 0,-6.69 0.89,-12.96 2.66,-18.8 1.77,-5.84 4.36,-10.92 7.78,-15.26 3.41,-4.33 7.55,-7.77 12.4,-10.33 4.86,-2.56 10.37,-3.84 16.53,-3.84 13.39,0 23.29,3.74 29.72,11.22 6.43,7.48 9.64,18.17 9.64,32.08l-0.39 7.87zm-18.31 -7.87c0,-11.42 -1.71,-20.18 -5.12,-26.28 -3.41,-6.1 -8.59,-9.15 -15.55,-9.15 -3.02,0 -5.77,0.89 -8.27,2.66 -2.49,1.77 -4.66,4.23 -6.5,7.38 -1.84,3.15 -3.28,6.89 -4.33,11.22 -1.05,4.33 -1.58,9.05 -1.58,14.17l41.34 0z"/>
   <path id="_15" class="fil1" d="M3659.21 1603c0,-5.9 -0.82,-10.66 -2.46,-14.27 -1.64,-3.61 -5.41,-5.41 -11.32,-5.41l-1.97 0 0 -3.94 15.75 0c4.99,0 8.76,0.72 11.32,2.17 2.56,1.44 4.36,3.67 5.41,6.69l0.98 0c1.97,-2.49 4.92,-4.92 8.86,-7.28 3.94,-2.36 8.86,-3.54 14.76,-3.54 1.97,0 4.07,0.23 6.3,0.69 2.23,0.46 4.07,1.21 5.51,2.26 1.44,1.05 2.69,2.3 3.74,3.74 1.05,1.44 2.1,3.15 3.15,5.12l-7.87 5.91c-1.44,-1.97 -3.58,-3.45 -6.4,-4.43 -2.82,-0.98 -5.94,-1.48 -9.35,-1.48 -3.94,0 -7.55,0.89 -10.83,2.66 -3.28,1.77 -5.91,4.17 -7.87,7.18l0 72.83 -17.72 0 0 -68.89z"/>
   <path id="_16" class="fil1" d="M3768.5 1671.9l-17.72 0 0 -106.29c0,-5.91 -0.82,-10.66 -2.46,-14.27 -1.64,-3.61 -5.41,-5.41 -11.32,-5.41l-3.94 0 0 -3.94 17.72 0c3.41,0 6.27,0.3 8.56,0.89 2.3,0.59 4.13,1.77 5.51,3.54 1.38,1.77 2.33,4.2 2.85,7.28 0.53,3.08 0.79,7.05 0.79,11.91l0 106.29z"/>
   <path id="_17" class="fil1" d="M3884.87 1628.59l-59.64 0c0,5.38 0.59,10.37 1.77,14.96 1.18,4.59 2.92,8.56 5.22,11.91 2.3,3.35 5.09,5.94 8.37,7.77 3.28,1.84 7.02,2.76 11.22,2.76 6.43,0 11.78,-1.38 16.04,-4.13 4.27,-2.76 8.1,-6.63 11.52,-11.61l3.94 2.95c-4.46,7.48 -9.61,12.79 -15.45,15.94 -5.84,3.15 -12.5,4.72 -19.98,4.72 -6.96,0 -12.99,-1.28 -18.11,-3.84 -5.12,-2.56 -9.42,-6 -12.89,-10.33 -3.48,-4.33 -6.07,-9.42 -7.77,-15.25 -1.71,-5.84 -2.56,-12.11 -2.56,-18.8 0,-6.69 0.89,-12.96 2.66,-18.8 1.77,-5.84 4.36,-10.92 7.78,-15.26 3.41,-4.33 7.55,-7.77 12.4,-10.33 4.86,-2.56 10.37,-3.84 16.53,-3.84 13.39,0 23.29,3.74 29.72,11.22 6.43,7.48 9.64,18.17 9.64,32.08l-0.39 7.87zm-18.31 -7.87c0,-11.42 -1.71,-20.18 -5.12,-26.28 -3.41,-6.1 -8.59,-9.15 -15.55,-9.15 -3.02,0 -5.77,0.89 -8.27,2.66 -2.49,1.77 -4.66,4.23 -6.5,7.38 -1.84,3.15 -3.28,6.89 -4.33,11.22 -1.05,4.33 -1.58,9.05 -1.58,14.17l41.34 0z"/>
   <path id="_18" class="fil1" d="M3925.07 1603c0,-5.9 -0.82,-10.66 -2.46,-14.27 -1.64,-3.61 -5.41,-5.41 -11.32,-5.41l-3.94 0 0 -3.94 17.72 0c4.99,0 8.76,0.69 11.32,2.07 2.56,1.38 4.36,3.31 5.41,5.81l0.98 0c2.49,-2.49 5.9,-4.76 10.24,-6.79 4.33,-2.03 9.45,-3.05 15.35,-3.05 4.2,0 8.3,0.49 12.3,1.48 4,0.98 7.58,2.82 10.73,5.51 3.15,2.69 5.68,6.33 7.58,10.92 1.9,4.59 2.85,10.43 2.85,17.52l0 59.05 -17.72 0 0 -59.05c0,-4.85 -0.62,-8.99 -1.87,-12.4 -1.25,-3.41 -2.89,-6.17 -4.92,-8.27 -2.03,-2.1 -4.33,-3.61 -6.89,-4.53 -2.56,-0.92 -5.22,-1.38 -7.97,-1.38 -3.94,0 -7.58,1.05 -10.92,3.15 -3.35,2.1 -6.27,4.53 -8.76,7.28l0 75.19 -17.72 0 0 -68.89z"/>
   <path id="_19" class="fil1" d="M4040.26 1606.94c0,-5.64 0.98,-10.37 2.95,-14.17 1.97,-3.81 4.63,-6.82 7.97,-9.05 3.35,-2.23 7.32,-3.84 11.91,-4.82 4.59,-0.98 9.45,-1.48 14.57,-1.48l36.41 0 0 4.92 -12.79 1.97 0 0.98c3.94,1.97 7.22,4.82 9.84,8.56 2.62,3.74 3.94,8.1 3.94,13.09 0,5.64 -0.98,10.37 -2.95,14.17 -1.97,3.81 -4.63,6.82 -7.97,9.05 -3.35,2.23 -7.32,3.84 -11.91,4.82 -4.59,0.98 -9.45,1.48 -14.57,1.48 -13.78,0 -20.67,2.3 -20.67,6.89 0,4.59 6.89,6.89 20.67,6.89 5.9,0 11.48,0.59 16.73,1.77 5.25,1.18 9.84,2.99 13.78,5.41 3.94,2.43 7.05,5.58 9.35,9.45 2.3,3.87 3.44,8.5 3.44,13.88 0,5.64 -1.12,10.4 -3.35,14.27 -2.23,3.87 -5.28,7.02 -9.15,9.45 -3.87,2.43 -8.43,4.17 -13.68,5.22 -5.25,1.05 -10.96,1.58 -17.12,1.58 -6.17,0 -11.88,-0.53 -17.13,-1.58 -5.25,-1.05 -9.81,-2.79 -13.68,-5.22 -3.87,-2.43 -6.92,-5.58 -9.15,-9.45 -2.23,-3.87 -3.35,-8.63 -3.35,-14.27 0,-6.43 2.13,-11.81 6.4,-16.14 4.27,-4.33 9.35,-7.48 15.26,-9.45 -1.97,-1.05 -3.77,-2.53 -5.41,-4.43 -1.64,-1.9 -2.46,-4.36 -2.46,-7.38 0,-3.02 0.79,-5.32 2.36,-6.89 1.57,-1.58 3.08,-2.89 4.53,-3.94 -3.94,-1.97 -7.38,-5.12 -10.33,-9.45 -2.95,-4.33 -4.43,-9.71 -4.43,-16.14zm28.54 50.19c-4.99,1.97 -9.02,4.79 -12.11,8.46 -3.08,3.67 -4.63,8.73 -4.63,15.16 0,7.87 2.4,13.62 7.19,17.22 4.79,3.61 10.92,5.41 18.4,5.41 7.48,0 13.61,-1.8 18.4,-5.41 4.79,-3.61 7.19,-9.35 7.19,-17.22 0,-13.12 -7.87,-20.67 -23.62,-22.64l-10.83 -0.98zm28.54 -50.19c0,-7.87 -1.9,-13.62 -5.71,-17.22 -3.81,-3.61 -8.46,-5.41 -13.98,-5.41 -2.76,0 -5.32,0.39 -7.68,1.18 -2.36,0.79 -4.43,2.07 -6.2,3.84 -1.77,1.77 -3.18,4.1 -4.23,6.99 -1.05,2.89 -1.57,6.43 -1.57,10.63 0,4.2 0.52,7.74 1.57,10.63 1.05,2.89 2.46,5.22 4.23,6.99 1.77,1.77 3.84,3.05 6.2,3.84 2.36,0.79 4.92,1.18 7.68,1.18 2.76,0 5.31,-0.39 7.68,-1.18 2.36,-0.79 4.43,-2.07 6.2,-3.84 1.77,-1.77 3.18,-4.1 4.23,-6.99 1.05,-2.89 1.58,-6.43 1.58,-10.63z"/>
   <path id="_20" class="fil1" d="M4172.18 1623.67l24.6 -31.49c3.02,-3.81 6.43,-6.89 10.24,-9.25 3.81,-2.36 8.92,-3.54 15.35,-3.54l5.9 0 0 4.92c-3.41,0 -6.76,0.72 -10.04,2.16 -3.28,1.44 -6.17,3.67 -8.66,6.69l-21.65 27.56 24.61 31.36c3.81,4.95 7.38,8.69 10.73,11.19 3.35,2.46 6.99,4.03 10.92,4.69l0 3.94c-1.05,0.53 -2.46,0.98 -4.23,1.38 -1.77,0.39 -3.64,0.59 -5.61,0.59 -4.99,0 -9.88,-1.15 -14.66,-3.45 -4.79,-2.3 -9.42,-6.4 -13.88,-12.3l-23.62 -31.49 0 45.27 -17.72 0 0 -106.29c0,-5.91 -0.82,-10.66 -2.46,-14.27 -1.64,-3.61 -5.41,-5.41 -11.32,-5.41l-3.94 0 0 -3.94 17.72 0c3.41,0 6.27,0.3 8.56,0.89 2.3,0.59 4.13,1.77 5.51,3.54 1.38,1.77 2.33,4.2 2.85,7.28 0.52,3.08 0.79,7.05 0.79,11.91l0 58.07z"/>
   <path id="_21" class="fil1" d="M4313.75 1626.62l-5.9 0c-9.84,0 -17.55,1.8 -23.13,5.41 -5.58,3.61 -8.37,8.37 -8.37,14.27 0,3.15 0.52,5.9 1.57,8.27 1.05,2.36 2.43,4.33 4.13,5.9 1.71,1.58 3.67,2.72 5.9,3.45 2.23,0.72 4.59,1.08 7.09,1.08 4.85,0 8.69,-1.21 11.51,-3.64 2.82,-2.43 5.22,-5.15 7.19,-8.17l0 -26.57zm7.87 45.27l-6.89 -8.86 -0.98 0c-1.97,2.49 -5.18,4.92 -9.64,7.28 -4.46,2.36 -10.43,3.54 -17.91,3.54 -2.76,0 -5.77,-0.43 -9.05,-1.28 -3.28,-0.85 -6.36,-2.33 -9.25,-4.43 -2.89,-2.1 -5.32,-4.92 -7.28,-8.46 -1.97,-3.54 -2.95,-8.01 -2.95,-13.38 0,-5.38 1.38,-9.84 4.13,-13.39 2.76,-3.54 6.43,-6.36 11.02,-8.46 4.59,-2.1 9.91,-3.58 15.94,-4.43 6.04,-0.85 12.4,-1.28 19.09,-1.28l5.9 0c0,-6.82 -0.53,-12.43 -1.58,-16.83 -1.05,-4.4 -2.49,-7.81 -4.33,-10.24 -1.84,-2.43 -4.04,-4.1 -6.59,-5.02 -2.56,-0.92 -5.28,-1.38 -8.17,-1.38 -5.51,0 -10.14,1.18 -13.88,3.54 -3.74,2.36 -6.33,6.76 -7.78,13.19l-8.86 0c0,-3.41 0.2,-6.59 0.59,-9.55 0.39,-2.95 1.84,-5.68 4.33,-8.17 1.18,-1.18 2.85,-2.23 5.02,-3.15 2.16,-0.92 4.56,-1.64 7.19,-2.17 2.62,-0.52 5.41,-0.92 8.37,-1.18 2.95,-0.26 5.94,-0.39 8.96,-0.39 4.46,0 8.76,0.49 12.89,1.48 4.13,0.98 7.81,2.95 11.02,5.91 3.21,2.95 5.77,7.15 7.68,12.6 1.9,5.45 2.85,12.56 2.85,21.36l0 53.15 -9.84 0z"/>
   <path id="_22" class="fil1" d="M4393.71 1660.09c3.02,1.44 6.13,2.79 9.35,4.04 3.21,1.25 6.33,1.87 9.35,1.87 4.46,0 8.23,-1.05 11.32,-3.15 3.08,-2.1 5.61,-4.95 7.58,-8.56 1.97,-3.61 3.41,-7.87 4.33,-12.79 0.92,-4.92 1.38,-10.2 1.38,-15.85 0,-5.64 -0.43,-10.92 -1.28,-15.85 -0.85,-4.92 -2.23,-9.19 -4.13,-12.79 -1.9,-3.61 -4.27,-6.46 -7.09,-8.56 -2.82,-2.1 -6.2,-3.15 -10.14,-3.15 -2.76,0 -5.18,0.33 -7.28,0.98 -2.1,0.66 -3.97,1.54 -5.61,2.66 -1.64,1.12 -3.12,2.4 -4.43,3.84 -1.31,1.44 -2.43,2.89 -3.35,4.33l0 62.99zm-17.72 -57.08c0,-5.9 -0.82,-10.66 -2.46,-14.27 -1.64,-3.61 -5.41,-5.41 -11.32,-5.41l-3.94 0 0 -3.94 17.72 0c4.99,0 8.76,0.72 11.32,2.17 2.56,1.44 4.36,3.67 5.41,6.69l0.98 0c1.97,-2.49 5.05,-4.92 9.25,-7.28 4.2,-2.36 9.97,-3.54 17.32,-3.54 5.9,0 11.06,1.28 15.45,3.84 4.4,2.56 8.07,6 11.02,10.33 2.95,4.33 5.18,9.42 6.69,15.26 1.51,5.84 2.26,12.11 2.26,18.8 0,6.69 -0.75,12.96 -2.26,18.8 -1.51,5.84 -3.81,10.92 -6.89,15.25 -3.08,4.33 -6.96,7.77 -11.61,10.33 -4.66,2.56 -10.2,3.84 -16.63,3.84 -5.51,0 -10.24,-0.62 -14.17,-1.87 -3.94,-1.25 -7.41,-2.59 -10.43,-4.04l0 41.34 -17.72 0 0 -106.29z"/>
  </g>
 </g>
</svg>
